<svg width="1087" height="159" viewBox="0 0 1087 159" fill="none" xmlns="http://www.w3.org/2000/svg">
<g clip-path="url(#clip0)">
<path d="M32.1 44.156C18.6 68.456 5.9 91.356 3.8 95.156L0 102.056L9.8 101.756L19.5 101.456L26.1 89.456L32.8 77.456L65.3 77.156L97.9 76.956L104.7 89.456L111.6 101.956H120.9C125.9 101.956 130.1 101.656 130.1 101.256C130.1 100.856 117.6 77.956 102.4 50.256L74.6 0.055994L65.6 -0.0440063H56.6L32.1 44.156ZM77.4 39.656C83.3 50.156 88.1 59.056 88.1 59.356C88.1 59.656 77.8 59.956 65.2 59.956H42.2L51.3 43.656C64.5 19.956 65.2 18.656 66 19.656C66.4 20.056 71.6 29.056 77.4 39.656Z" fill="white"/>
<path d="M140.3 44.6559C140.6 87.656 140.7 89.656 142.7 93.356C143.9 95.856 146.2 98.156 148.7 99.356C152.5 101.356 154.1 101.456 195.1 101.456C235.9 101.456 237.7 101.356 241.1 99.456C243.2 98.256 245.5 95.556 246.9 92.956C249.1 88.556 249.1 88.156 249.1 44.2559V-0.0441284H240.1H231.1V42.4559V84.956H194.6H158.1V42.4559V-0.0441284H149.1H140L140.3 44.6559Z" fill="white"/>
<path d="M262.1 8.45587V16.9559H282.6H303.1V59.4559V101.956H312.1H321.1V59.4559V16.9559H341.6H362.1V8.45587V-0.0441284H312.1H262.1V8.45587Z" fill="white"/>
<path d="M385.8 1.15591C380.3 2.65591 376.5 6.95591 375.1 13.2559C374.3 16.7559 374.1 29.8559 374.3 53.9559C374.6 87.556 374.7 89.656 376.7 93.356C377.9 95.856 380.2 98.156 382.7 99.356C386.5 101.356 388.1 101.456 430.6 101.456C472.9 101.456 474.7 101.356 478.1 99.456C480.2 98.256 482.5 95.556 483.9 92.956C486.1 88.556 486.1 87.956 486.1 50.9559C486.1 13.9559 486.1 13.3559 483.9 8.95591C482.5 6.35591 480.2 3.65591 478.1 2.45591C474.8 0.555912 472.8 0.455915 432.1 0.255915C405.7 0.155915 388.2 0.555913 385.8 1.15591ZM468.1 50.9559V84.956H430.1H392.1V50.9559V16.9559H430.1H468.1V50.9559Z" fill="white"/>
<path d="M506.1 50.9559V101.956H515.1H524.1V79.956V57.9559H549.1H574.1V49.9559V41.9559H549.1H524.1V28.9559V15.9559H562.6H601.1V7.95587V-0.0441284H553.6H506.1V50.9559Z" fill="#DC492B"/>
<path d="M614.1 50.8559V101.956H623.1H632.1V80.956V59.9559H649.4H666.6L682.6 80.956L698.6 101.956H709.4H720.3L713.5 93.156C709.7 88.356 702.4 79.056 697.3 72.456L687.9 60.4559L695.7 59.7559C704.9 58.8559 707.9 57.7559 711.4 54.1559C715.1 50.2559 716.1 45.0559 716.1 29.9559C716.1 15.2559 715.1 9.7559 711.8 6.1559C706.5 0.355895 707.4 0.455895 658.9 0.155895L614.1 -0.144104V50.8559ZM696 18.3559C697.9 20.0559 698.1 21.3559 698.1 29.9559C698.1 44.3559 700.6 43.3559 663 43.7559L632.1 44.0559V29.9559V15.8559L663 16.1559C691.7 16.4559 694 16.5559 696 18.3559Z" fill="#DC492B"/>
<path d="M754.9 50.3559C739.6 78.056 727.1 100.956 727.1 101.356C727.1 101.656 731.1 101.956 736 101.956H745L752.1 88.956L759.2 75.956H791.5H823.7L830.7 88.656L837.7 101.456L847 101.756C854.3 101.956 856.2 101.756 855.8 100.756C855.5 100.056 842.9 77.156 827.8 49.9559L800.3 0.45587L791.5 0.255873L782.6 -0.0441284L754.9 50.3559ZM804.4 40.9559L814.7 59.4559L803.5 59.7559C797.3 59.8559 786.8 59.8559 780.2 59.7559L768.2 59.4559L779.8 38.5559C790.8 18.7559 791.5 17.8559 792.7 20.0559C793.4 21.3559 798.7 30.7559 804.4 40.9559Z" fill="#DC492B"/>
<path d="M866.1 50.9559V101.956H875.1H884.1L884.3 60.4559L884.6 18.8559L919.1 60.4559L953.6 101.956H963.9H974.1V50.9559V-0.0441284H965.1H956.1L956.2 35.6559C956.2 55.3559 956.6 73.656 957.1 76.456C957.5 79.156 957.8 81.556 957.7 81.656C957.6 81.856 955.7 79.356 953.5 76.156C951.3 73.056 936.4 54.5559 920.2 35.1559L891 -0.0441284H878.5H866.1V50.9559Z" fill="#DC492B"/>
<path d="M987.1 7.95587V15.9559H1007.6H1028.1V58.9559V101.956H1037.1H1046.1V58.9559V15.9559H1066.6H1087.1V7.95587V-0.0441284H1037.1H987.1V7.95587Z" fill="#DC492B"/>
<path d="M572.1 142.956V158.956H587.9C600 158.956 604.2 158.656 605.7 157.556C607.4 156.256 607.6 154.856 607.6 142.956C607.6 131.056 607.4 129.656 605.7 128.356C604.2 127.256 600 126.956 587.9 126.956H572.1V142.956ZM601.6 142.956V153.456L589.9 153.756L578.1 154.056V142.956V131.856L589.9 132.156L601.6 132.456V142.956Z" fill="white"/>
<path d="M612.1 142.956V158.956H628.1H644.1V156.456V153.956H631.1H618.1V149.456V144.956H626.1C634 144.956 634.1 144.956 634.1 142.456C634.1 139.956 634 139.956 626.1 139.956H618.1V135.956V131.956H631.1H644.1V129.456V126.956H628.1H612.1V142.956Z" fill="white"/>
<path d="M650.6 128.356C649.4 129.256 648.6 131.356 648.3 135.156C647.9 139.856 648.2 141.056 650 142.856C651.9 144.756 653.2 144.956 663.1 144.956H674.1V149.456V153.956H664.1C654.8 153.956 654.1 153.856 654.1 151.956C654.1 150.356 653.4 149.956 651 149.956C648 149.956 647.9 150.056 648.5 153.156C649.5 158.356 651.1 158.956 664.6 158.956C679.3 158.956 680.1 158.456 680.1 149.356C680.1 146.156 679.6 142.756 679.1 141.956C678.4 140.856 675.4 140.356 666.4 139.956L654.6 139.456L654.3 135.656L654 131.956H663.5C672.4 131.956 673.1 132.056 673.1 133.956C673.1 135.556 673.8 135.956 676.1 135.956C678.8 135.956 679.1 135.656 679.1 133.056C679.1 128.056 676.3 126.956 663.6 126.956C655.8 126.956 651.9 127.356 650.6 128.356Z" fill="white"/>
<path d="M686.1 142.956V158.956H689.1H692.1V142.956V126.956H689.1H686.1V142.956Z" fill="white"/>
<path d="M698.5 128.356C696.8 129.656 696.6 131.056 696.6 142.956C696.6 159.656 695.8 158.956 714.1 158.956C731.4 158.956 731.4 158.956 731.9 148.056L732.3 139.956H722.7C713.1 139.956 713.1 139.956 713.1 142.456C713.1 144.856 713.3 144.956 719.6 144.956H726.1V149.456V153.956H714.1H702.1V142.956V131.956H714.1C725.4 131.956 726.1 132.056 726.1 133.956C726.1 135.556 726.8 135.956 729.2 135.956C732.2 135.956 732.3 135.856 731.7 132.656C731.4 130.956 730.3 128.856 729.4 128.156C726.9 126.356 701.1 126.456 698.5 128.356Z" fill="white"/>
<path d="M736.1 142.956V158.956H739.1H742L742.3 146.256L742.6 133.456L753.4 146.256C763.4 157.956 764.5 158.956 767.7 158.956H771.1V142.956V126.956H768.1H765.2L764.9 138.956L764.6 150.956L754.6 138.956C744.7 127.256 744.5 127.056 740.4 126.956H736.1V142.956Z" fill="white"/>
<path d="M791.1 127.556C791.1 127.856 794.7 132.356 799.1 137.556L807.1 147.056V153.056C807.1 158.956 807.1 158.956 810.1 158.956H813.1V152.856V146.856L821.3 137.156L829.4 127.456L826.1 127.156C823.1 126.856 822.2 127.356 819.2 131.156C817.2 133.456 814.3 136.956 812.6 138.756L809.6 141.956L803.6 134.456C798.4 127.856 797.2 126.956 794.4 126.956C792.6 126.956 791.1 127.156 791.1 127.556Z" fill="white"/>
<path d="M833.5 128.356C831.8 129.656 831.6 131.056 831.6 142.956C831.6 159.656 830.8 158.956 849.1 158.956C867.4 158.956 866.6 159.656 866.6 142.956C866.6 131.056 866.4 129.656 864.7 128.356C861.9 126.356 836.3 126.356 833.5 128.356ZM861.1 142.956V153.956H849.1H837.1V142.956V131.956H849.1H861.1V142.956Z" fill="white"/>
<path d="M871.3 141.556C871.6 154.656 871.8 156.256 873.5 157.556C875 158.556 878.9 158.956 889.1 158.956C906.9 158.956 906.1 159.856 906.1 141.156V126.956H903.1H900.1V140.456V153.956H888.6H877.1V140.456V126.956H874H871L871.3 141.556Z" fill="white"/>
<path d="M911.1 142.956V158.956H914.1H917.1V152.456V145.956H922.5H927.9L933.1 152.456C937.7 158.156 938.7 158.956 941.7 158.956H945.1L940 152.456C935.2 146.356 935.1 145.956 937.3 145.956C942.1 145.956 943.6 143.756 943.6 136.456C943.6 127.156 943.3 126.956 925.4 126.956H911.1V142.956ZM937.6 136.456V140.456L927.4 140.756L917.1 141.056V136.456V131.856L927.4 132.156L937.6 132.456V136.456Z" fill="white"/>
<path d="M968.5 128.356C966.8 129.656 966.6 131.056 966.6 142.956C966.6 159.656 965.9 158.956 983.1 158.956C997.3 158.956 999.1 158.156 999.1 152.156C999.1 149.256 998.8 148.956 996.1 148.956C993.6 148.956 993.1 149.356 993.1 151.456V153.956H982.6H972.1V142.956V131.956H982.6H993.1V134.456C993.1 136.556 993.6 136.956 996.1 136.956C998.8 136.956 999.1 136.656 999.1 133.656C999.1 127.756 997.1 126.956 983 126.956C973.8 126.956 970 127.356 968.5 128.356Z" fill="white"/>
<path d="M1015.8 131.156C1014.4 133.556 1011.4 138.856 1009.1 142.956C1006.8 147.056 1003.8 152.356 1002.4 154.656L1000 158.956H1003C1005.4 158.956 1006.4 158.256 1008.2 154.956L1010.5 150.956H1020.8H1031L1033.3 154.956C1035.1 158.156 1036.2 158.956 1038.4 158.956C1040 158.956 1041.1 158.556 1040.9 158.156C1040.8 157.656 1036.8 150.456 1032.1 142.156C1024.4 128.356 1023.4 126.956 1020.9 126.956C1018.7 126.956 1017.7 127.856 1015.8 131.156ZM1025.1 140.156L1028.3 145.956H1021.2C1017.3 145.956 1014.1 145.656 1014.1 145.356C1014.1 143.756 1020.6 133.056 1021.2 133.756C1021.6 134.156 1023.3 137.056 1025.1 140.156Z" fill="white"/>
<path d="M1042.1 142.956V158.956H1045.1H1048.1V152.456V145.956H1053.5H1058.9L1064.1 152.456C1068.7 158.156 1069.7 158.956 1072.7 158.956H1076.1L1071 152.456C1066.2 146.356 1066.1 145.956 1068.3 145.956C1073.1 145.956 1074.6 143.756 1074.6 136.456C1074.6 127.156 1074.3 126.956 1056.4 126.956H1042.1V142.956ZM1068.6 136.456V140.456L1058.4 140.756L1048.1 141.056V136.456V131.856L1058.4 132.156L1068.6 132.456V136.456Z" fill="white"/>
</g>
<defs>
<clipPath id="clip0">
<rect width="1087" height="159" fill="white"/>
</clipPath>
</defs>
</svg>
