<svg width="9" height="17" viewBox="0 0 9 17"  xmlns="http://www.w3.org/2000/svg">
<path d="M8.21629 0H7.19787C4.36726 0 2.06442 2.01527 2.06442 4.49233V6.38824H0.324462C0.145294 6.38824 0 6.51538 0 6.67217V8.94367C0 9.10046 0.145294 9.22761 0.324462 9.22761H2.06429V16.1844C2.06429 16.3412 2.20959 16.4683 2.38876 16.4683H4.98445C5.16362 16.4683 5.30891 16.3412 5.30891 16.1844V9.22761H7.89072C8.06989 9.22761 8.21519 9.10046 8.21519 8.94367V6.67217C8.21519 6.51538 8.06989 6.38824 7.89072 6.38824H5.30891V4.49233C5.30891 3.5809 6.15628 2.83937 7.19774 2.83937H8.21616C8.39533 2.83937 8.54062 2.71222 8.54062 2.55543V0.283937C8.54075 0.127147 8.39546 0 8.21629 0Z" />
</svg>
