<?xml version="1.0" encoding="utf-8"?><svg width="36" height="36" fill="none" xmlns="http://www.w3.org/2000/svg" viewBox="0 0 36 36"><path d="M34.97 4.922a1.356 1.356 0 00-1.918-.003L16.775 21.153l-5.872-6.378a1.357 1.357 0 00-1.997 1.838l6.83 7.416a1.355 1.355 0 001.956.043L34.968 6.84c.53-.529.532-1.388.003-1.918z" fill="#E74F2F"/><path d="M34.643 16.643c-.75 0-1.357.607-1.357 1.357 0 8.43-6.857 15.286-15.286 15.286C9.571 33.286 2.714 26.43 2.714 18 2.714 9.571 9.57 2.714 18 2.714A1.357 1.357 0 1018 0C8.075 0 0 8.075 0 18s8.075 18 18 18 18-8.075 18-18c0-.75-.607-1.357-1.357-1.357z" fill="#E74F2F"/></svg>